# xmcd
#
# Track frame offsets:
# 150
# 20262
# 42177
# 59882
# 73086
# 95680
# 111845
# 125997
# 154203
# 170822
#
# Disc length: 2553 seconds
#
#
# Revision: 0
# Processed by: cddbd v1.5.2PL0 Copyright (c) Steve Scherf et al.
# Submitted via: FreeRIP 2.95 
#
DISCID=9809f70a
DTITLE=Glenn Kearney - Grace In A Prison Place
DYEAR=2002
DGENRE=Country
TTITLE0=Be Born Again
TTITLE1=Grace In A Prison Place
TTITLE2=It Was Love
TTITLE3=God Knows
TTITLE4=John 3:16
TTITLE5=Plead The Blood
TTITLE6=Knowing What It's All About
TTITLE7=Lord Forgive Us
TTITLE8=Voice Of The Holy Ghost
TTITLE9=Let Him In
EXTD=
EXTT0=
EXTT1=
EXTT2=
EXTT3=
EXTT4=
EXTT5=
EXTT6=
EXTT7=
EXTT8=
EXTT9=
PLAYORDER=
